<mxfile host="Electron" modified="2023-04-16T12:26:04.020Z" agent="Mozilla/5.0 (X11; Linux x86_64) AppleWebKit/537.36 (KHTML, like Gecko) draw.io/21.1.2 Chrome/106.0.5249.199 Electron/21.4.3 Safari/537.36" etag="5Z7RfQhLnppVMQgBzVec" version="21.1.2" type="device">
  <diagram id="XdXDwyR-r_PqrQyKESN_" name="Page-1">
    <mxGraphModel dx="989" dy="557" grid="1" gridSize="10" guides="1" tooltips="1" connect="1" arrows="1" fold="1" page="1" pageScale="1" pageWidth="1100" pageHeight="850" math="0" shadow="0">
      <root>
        <mxCell id="0" />
        <mxCell id="1" parent="0" />
        <mxCell id="D1LdL2bt-GOxow9vJPIf-19" style="rounded=0;orthogonalLoop=1;jettySize=auto;html=1;entryX=0.2;entryY=0;entryDx=0;entryDy=0;entryPerimeter=0;fontSize=10;exitX=0.5;exitY=0.998;exitDx=0;exitDy=0;exitPerimeter=0;" parent="1" source="sWGIIldHXHQuQpvI23MK-2" target="D1LdL2bt-GOxow9vJPIf-10" edge="1">
          <mxGeometry relative="1" as="geometry" />
        </mxCell>
        <mxCell id="sWGIIldHXHQuQpvI23MK-1" value="" style="shape=table;html=1;whiteSpace=wrap;startSize=0;container=1;collapsible=0;childLayout=tableLayout;" parent="1" vertex="1">
          <mxGeometry x="50" y="310" width="240" height="40" as="geometry" />
        </mxCell>
        <mxCell id="sWGIIldHXHQuQpvI23MK-2" value="" style="shape=tableRow;horizontal=0;startSize=0;swimlaneHead=0;swimlaneBody=0;top=0;left=0;bottom=0;right=0;collapsible=0;dropTarget=0;fillColor=none;points=[[0,0.5],[1,0.5]];portConstraint=eastwest;" parent="sWGIIldHXHQuQpvI23MK-1" vertex="1">
          <mxGeometry width="240" height="40" as="geometry" />
        </mxCell>
        <mxCell id="sWGIIldHXHQuQpvI23MK-3" value="0.3" style="shape=partialRectangle;html=1;whiteSpace=wrap;connectable=0;fillColor=none;top=0;left=0;bottom=0;right=0;overflow=hidden;" parent="sWGIIldHXHQuQpvI23MK-2" vertex="1">
          <mxGeometry width="60" height="40" as="geometry">
            <mxRectangle width="60" height="40" as="alternateBounds" />
          </mxGeometry>
        </mxCell>
        <mxCell id="sWGIIldHXHQuQpvI23MK-4" value="0.2" style="shape=partialRectangle;html=1;whiteSpace=wrap;connectable=0;fillColor=none;top=0;left=0;bottom=0;right=0;overflow=hidden;" parent="sWGIIldHXHQuQpvI23MK-2" vertex="1">
          <mxGeometry x="60" width="60" height="40" as="geometry">
            <mxRectangle width="60" height="40" as="alternateBounds" />
          </mxGeometry>
        </mxCell>
        <mxCell id="sWGIIldHXHQuQpvI23MK-14" value="0.4" style="shape=partialRectangle;html=1;whiteSpace=wrap;connectable=0;fillColor=none;top=0;left=0;bottom=0;right=0;overflow=hidden;" parent="sWGIIldHXHQuQpvI23MK-2" vertex="1">
          <mxGeometry x="120" width="60" height="40" as="geometry">
            <mxRectangle width="60" height="40" as="alternateBounds" />
          </mxGeometry>
        </mxCell>
        <mxCell id="sWGIIldHXHQuQpvI23MK-15" value="0.1" style="shape=partialRectangle;html=1;whiteSpace=wrap;connectable=0;fillColor=none;top=0;left=0;bottom=0;right=0;overflow=hidden;" parent="sWGIIldHXHQuQpvI23MK-2" vertex="1">
          <mxGeometry x="180" width="60" height="40" as="geometry">
            <mxRectangle width="60" height="40" as="alternateBounds" />
          </mxGeometry>
        </mxCell>
        <mxCell id="mwus9PYi0dFeoMU1GwIC-22" style="edgeStyle=none;shape=connector;rounded=0;orthogonalLoop=1;jettySize=auto;html=1;labelBackgroundColor=default;strokeColor=default;fontFamily=Helvetica;fontSize=10;fontColor=default;endArrow=classic;entryX=0.39;entryY=-0.006;entryDx=0;entryDy=0;entryPerimeter=0;exitX=0.511;exitY=0.995;exitDx=0;exitDy=0;exitPerimeter=0;" parent="1" source="sWGIIldHXHQuQpvI23MK-29" target="D1LdL2bt-GOxow9vJPIf-10" edge="1">
          <mxGeometry relative="1" as="geometry" />
        </mxCell>
        <mxCell id="sWGIIldHXHQuQpvI23MK-28" value="" style="shape=table;html=1;whiteSpace=wrap;startSize=0;container=1;collapsible=0;childLayout=tableLayout;" parent="1" vertex="1">
          <mxGeometry x="320" y="310" width="180" height="40" as="geometry" />
        </mxCell>
        <mxCell id="sWGIIldHXHQuQpvI23MK-29" value="" style="shape=tableRow;horizontal=0;startSize=0;swimlaneHead=0;swimlaneBody=0;top=0;left=0;bottom=0;right=0;collapsible=0;dropTarget=0;fillColor=none;points=[[0,0.5],[1,0.5]];portConstraint=eastwest;" parent="sWGIIldHXHQuQpvI23MK-28" vertex="1">
          <mxGeometry width="180" height="40" as="geometry" />
        </mxCell>
        <mxCell id="sWGIIldHXHQuQpvI23MK-30" value="0.6" style="shape=partialRectangle;html=1;whiteSpace=wrap;connectable=0;fillColor=none;top=0;left=0;bottom=0;right=0;overflow=hidden;" parent="sWGIIldHXHQuQpvI23MK-29" vertex="1">
          <mxGeometry width="60" height="40" as="geometry">
            <mxRectangle width="60" height="40" as="alternateBounds" />
          </mxGeometry>
        </mxCell>
        <mxCell id="sWGIIldHXHQuQpvI23MK-31" value="0.1" style="shape=partialRectangle;html=1;whiteSpace=wrap;connectable=0;fillColor=none;top=0;left=0;bottom=0;right=0;overflow=hidden;" parent="sWGIIldHXHQuQpvI23MK-29" vertex="1">
          <mxGeometry x="60" width="60" height="40" as="geometry">
            <mxRectangle width="60" height="40" as="alternateBounds" />
          </mxGeometry>
        </mxCell>
        <mxCell id="sWGIIldHXHQuQpvI23MK-32" value="0.3" style="shape=partialRectangle;html=1;whiteSpace=wrap;connectable=0;fillColor=none;top=0;left=0;bottom=0;right=0;overflow=hidden;" parent="sWGIIldHXHQuQpvI23MK-29" vertex="1">
          <mxGeometry x="120" width="60" height="40" as="geometry">
            <mxRectangle width="60" height="40" as="alternateBounds" />
          </mxGeometry>
        </mxCell>
        <mxCell id="mwus9PYi0dFeoMU1GwIC-32" style="edgeStyle=orthogonalEdgeStyle;shape=connector;rounded=0;orthogonalLoop=1;jettySize=auto;html=1;entryX=0.556;entryY=0.006;entryDx=0;entryDy=0;entryPerimeter=0;labelBackgroundColor=default;strokeColor=default;fontFamily=Helvetica;fontSize=10;fontColor=default;endArrow=classic;" parent="1" source="sWGIIldHXHQuQpvI23MK-39" target="D1LdL2bt-GOxow9vJPIf-10" edge="1">
          <mxGeometry relative="1" as="geometry">
            <Array as="points">
              <mxPoint x="630" y="390" />
              <mxPoint x="468" y="390" />
            </Array>
          </mxGeometry>
        </mxCell>
        <mxCell id="mwus9PYi0dFeoMU1GwIC-35" value="&lt;font style=&quot;font-size: 9px;&quot;&gt;1st row&lt;/font&gt;" style="edgeLabel;html=1;align=center;verticalAlign=middle;resizable=0;points=[];fontSize=10;fontFamily=Helvetica;fontColor=default;" parent="mwus9PYi0dFeoMU1GwIC-32" vertex="1" connectable="0">
          <mxGeometry x="0.2271" relative="1" as="geometry">
            <mxPoint x="-48" y="10" as="offset" />
          </mxGeometry>
        </mxCell>
        <mxCell id="mwus9PYi0dFeoMU1GwIC-34" style="edgeStyle=orthogonalEdgeStyle;shape=connector;rounded=0;orthogonalLoop=1;jettySize=auto;html=1;entryX=0.912;entryY=0;entryDx=0;entryDy=0;entryPerimeter=0;labelBackgroundColor=default;strokeColor=default;fontFamily=Helvetica;fontSize=10;fontColor=default;endArrow=classic;" parent="1" source="sWGIIldHXHQuQpvI23MK-39" target="D1LdL2bt-GOxow9vJPIf-10" edge="1">
          <mxGeometry relative="1" as="geometry">
            <Array as="points">
              <mxPoint x="630" y="390" />
              <mxPoint x="710" y="390" />
            </Array>
          </mxGeometry>
        </mxCell>
        <mxCell id="mwus9PYi0dFeoMU1GwIC-37" value="&lt;font style=&quot;font-size: 9px;&quot;&gt;3rd row&lt;/font&gt;" style="edgeLabel;html=1;align=center;verticalAlign=middle;resizable=0;points=[];fontSize=10;fontFamily=Helvetica;fontColor=default;" parent="mwus9PYi0dFeoMU1GwIC-34" vertex="1" connectable="0">
          <mxGeometry x="0.6872" y="1" relative="1" as="geometry">
            <mxPoint as="offset" />
          </mxGeometry>
        </mxCell>
        <mxCell id="mwus9PYi0dFeoMU1GwIC-55" style="edgeStyle=orthogonalEdgeStyle;shape=connector;rounded=0;orthogonalLoop=1;jettySize=auto;html=1;entryX=0.735;entryY=0;entryDx=0;entryDy=0;entryPerimeter=0;labelBackgroundColor=default;strokeColor=default;fontFamily=Helvetica;fontSize=9;fontColor=default;endArrow=classic;" parent="1" source="sWGIIldHXHQuQpvI23MK-39" target="D1LdL2bt-GOxow9vJPIf-10" edge="1">
          <mxGeometry relative="1" as="geometry" />
        </mxCell>
        <mxCell id="mwus9PYi0dFeoMU1GwIC-56" value="2nd row" style="edgeLabel;html=1;align=center;verticalAlign=middle;resizable=0;points=[];fontSize=9;fontFamily=Helvetica;fontColor=default;" parent="mwus9PYi0dFeoMU1GwIC-55" vertex="1" connectable="0">
          <mxGeometry x="0.6216" relative="1" as="geometry">
            <mxPoint y="-4" as="offset" />
          </mxGeometry>
        </mxCell>
        <mxCell id="sWGIIldHXHQuQpvI23MK-39" value="" style="shape=table;html=1;whiteSpace=wrap;startSize=0;container=1;collapsible=0;childLayout=tableLayout;" parent="1" vertex="1">
          <mxGeometry x="540" y="255" width="180" height="120" as="geometry" />
        </mxCell>
        <mxCell id="sWGIIldHXHQuQpvI23MK-40" value="" style="shape=tableRow;horizontal=0;startSize=0;swimlaneHead=0;swimlaneBody=0;top=0;left=0;bottom=0;right=0;collapsible=0;dropTarget=0;fillColor=none;points=[[0,0.5],[1,0.5]];portConstraint=eastwest;" parent="sWGIIldHXHQuQpvI23MK-39" vertex="1">
          <mxGeometry width="180" height="40" as="geometry" />
        </mxCell>
        <mxCell id="sWGIIldHXHQuQpvI23MK-41" value="0.3" style="shape=partialRectangle;html=1;whiteSpace=wrap;connectable=0;fillColor=none;top=0;left=0;bottom=0;right=0;overflow=hidden;" parent="sWGIIldHXHQuQpvI23MK-40" vertex="1">
          <mxGeometry width="60" height="40" as="geometry">
            <mxRectangle width="60" height="40" as="alternateBounds" />
          </mxGeometry>
        </mxCell>
        <mxCell id="sWGIIldHXHQuQpvI23MK-42" value="0.2" style="shape=partialRectangle;html=1;whiteSpace=wrap;connectable=0;fillColor=none;top=0;left=0;bottom=0;right=0;overflow=hidden;" parent="sWGIIldHXHQuQpvI23MK-40" vertex="1">
          <mxGeometry x="60" width="60" height="40" as="geometry">
            <mxRectangle width="60" height="40" as="alternateBounds" />
          </mxGeometry>
        </mxCell>
        <mxCell id="sWGIIldHXHQuQpvI23MK-43" value="0.5" style="shape=partialRectangle;html=1;whiteSpace=wrap;connectable=0;fillColor=none;top=0;left=0;bottom=0;right=0;overflow=hidden;" parent="sWGIIldHXHQuQpvI23MK-40" vertex="1">
          <mxGeometry x="120" width="60" height="40" as="geometry">
            <mxRectangle width="60" height="40" as="alternateBounds" />
          </mxGeometry>
        </mxCell>
        <mxCell id="sWGIIldHXHQuQpvI23MK-44" style="shape=tableRow;horizontal=0;startSize=0;swimlaneHead=0;swimlaneBody=0;top=0;left=0;bottom=0;right=0;collapsible=0;dropTarget=0;fillColor=none;points=[[0,0.5],[1,0.5]];portConstraint=eastwest;" parent="sWGIIldHXHQuQpvI23MK-39" vertex="1">
          <mxGeometry y="40" width="180" height="40" as="geometry" />
        </mxCell>
        <mxCell id="sWGIIldHXHQuQpvI23MK-45" value="0.2" style="shape=partialRectangle;html=1;whiteSpace=wrap;connectable=0;fillColor=none;top=0;left=0;bottom=0;right=0;overflow=hidden;" parent="sWGIIldHXHQuQpvI23MK-44" vertex="1">
          <mxGeometry width="60" height="40" as="geometry">
            <mxRectangle width="60" height="40" as="alternateBounds" />
          </mxGeometry>
        </mxCell>
        <mxCell id="sWGIIldHXHQuQpvI23MK-46" value="0.6" style="shape=partialRectangle;html=1;whiteSpace=wrap;connectable=0;fillColor=none;top=0;left=0;bottom=0;right=0;overflow=hidden;" parent="sWGIIldHXHQuQpvI23MK-44" vertex="1">
          <mxGeometry x="60" width="60" height="40" as="geometry">
            <mxRectangle width="60" height="40" as="alternateBounds" />
          </mxGeometry>
        </mxCell>
        <mxCell id="sWGIIldHXHQuQpvI23MK-47" value="0.2" style="shape=partialRectangle;html=1;whiteSpace=wrap;connectable=0;fillColor=none;top=0;left=0;bottom=0;right=0;overflow=hidden;" parent="sWGIIldHXHQuQpvI23MK-44" vertex="1">
          <mxGeometry x="120" width="60" height="40" as="geometry">
            <mxRectangle width="60" height="40" as="alternateBounds" />
          </mxGeometry>
        </mxCell>
        <mxCell id="sWGIIldHXHQuQpvI23MK-48" style="shape=tableRow;horizontal=0;startSize=0;swimlaneHead=0;swimlaneBody=0;top=0;left=0;bottom=0;right=0;collapsible=0;dropTarget=0;fillColor=none;points=[[0,0.5],[1,0.5]];portConstraint=eastwest;" parent="sWGIIldHXHQuQpvI23MK-39" vertex="1">
          <mxGeometry y="80" width="180" height="40" as="geometry" />
        </mxCell>
        <mxCell id="sWGIIldHXHQuQpvI23MK-49" value="0.7" style="shape=partialRectangle;html=1;whiteSpace=wrap;connectable=0;fillColor=none;top=0;left=0;bottom=0;right=0;overflow=hidden;" parent="sWGIIldHXHQuQpvI23MK-48" vertex="1">
          <mxGeometry width="60" height="40" as="geometry">
            <mxRectangle width="60" height="40" as="alternateBounds" />
          </mxGeometry>
        </mxCell>
        <mxCell id="sWGIIldHXHQuQpvI23MK-50" value="0.2" style="shape=partialRectangle;html=1;whiteSpace=wrap;connectable=0;fillColor=none;top=0;left=0;bottom=0;right=0;overflow=hidden;" parent="sWGIIldHXHQuQpvI23MK-48" vertex="1">
          <mxGeometry x="60" width="60" height="40" as="geometry">
            <mxRectangle width="60" height="40" as="alternateBounds" />
          </mxGeometry>
        </mxCell>
        <mxCell id="sWGIIldHXHQuQpvI23MK-51" value="0.1" style="shape=partialRectangle;html=1;whiteSpace=wrap;connectable=0;fillColor=none;top=0;left=0;bottom=0;right=0;overflow=hidden;" parent="sWGIIldHXHQuQpvI23MK-48" vertex="1">
          <mxGeometry x="120" width="60" height="40" as="geometry">
            <mxRectangle width="60" height="40" as="alternateBounds" />
          </mxGeometry>
        </mxCell>
        <mxCell id="sWGIIldHXHQuQpvI23MK-95" value="&lt;font style=&quot;font-size: 15px;&quot;&gt;painting sequence&lt;br&gt;random key&lt;br&gt;&lt;/font&gt;" style="text;html=1;align=center;verticalAlign=middle;resizable=0;points=[];autosize=1;strokeColor=none;fillColor=none;fontSize=17;fontFamily=Helvetica;fontColor=default;" parent="1" vertex="1">
          <mxGeometry x="100" y="230" width="150" height="50" as="geometry" />
        </mxCell>
        <mxCell id="sWGIIldHXHQuQpvI23MK-123" value="&lt;font style=&quot;font-size: 15px;&quot;&gt;slicing order&lt;br&gt;random key&lt;br&gt;&lt;/font&gt;" style="text;html=1;align=center;verticalAlign=middle;resizable=0;points=[];autosize=1;strokeColor=none;fillColor=none;fontSize=17;fontFamily=Helvetica;fontColor=default;" parent="1" vertex="1">
          <mxGeometry x="365" y="230" width="100" height="50" as="geometry" />
        </mxCell>
        <mxCell id="sWGIIldHXHQuQpvI23MK-125" value="&lt;font style=&quot;font-size: 15px;&quot;&gt;orientation&lt;br&gt;probabilities&lt;br&gt;&lt;/font&gt;" style="text;html=1;align=center;verticalAlign=middle;resizable=0;points=[];autosize=1;strokeColor=none;fillColor=none;fontSize=17;fontFamily=Helvetica;fontColor=default;" parent="1" vertex="1">
          <mxGeometry x="580" y="180" width="100" height="50" as="geometry" />
        </mxCell>
        <mxCell id="D1LdL2bt-GOxow9vJPIf-2" value="" style="shape=curlyBracket;whiteSpace=wrap;html=1;rounded=1;flipH=1;labelPosition=right;verticalLabelPosition=middle;align=left;verticalAlign=middle;direction=south;" parent="1" vertex="1">
          <mxGeometry x="50" y="280" width="240" height="20" as="geometry" />
        </mxCell>
        <mxCell id="D1LdL2bt-GOxow9vJPIf-3" value="" style="shape=curlyBracket;whiteSpace=wrap;html=1;rounded=1;flipH=1;labelPosition=right;verticalLabelPosition=middle;align=left;verticalAlign=middle;direction=south;" parent="1" vertex="1">
          <mxGeometry x="325" y="280" width="180" height="20" as="geometry" />
        </mxCell>
        <mxCell id="D1LdL2bt-GOxow9vJPIf-4" value="" style="shape=curlyBracket;whiteSpace=wrap;html=1;rounded=1;flipH=1;labelPosition=right;verticalLabelPosition=middle;align=left;verticalAlign=middle;direction=south;" parent="1" vertex="1">
          <mxGeometry x="540" y="230" width="180" height="20" as="geometry" />
        </mxCell>
        <mxCell id="D1LdL2bt-GOxow9vJPIf-8" value="&lt;span style=&quot;font-size: 15px;&quot;&gt;steps&lt;/span&gt;" style="text;html=1;align=left;verticalAlign=middle;resizable=0;points=[];autosize=1;strokeColor=none;fillColor=none;" parent="1" vertex="1">
          <mxGeometry x="110" y="395" width="60" height="30" as="geometry" />
        </mxCell>
        <mxCell id="mwus9PYi0dFeoMU1GwIC-23" style="edgeStyle=none;shape=connector;rounded=0;orthogonalLoop=1;jettySize=auto;html=1;entryX=0.505;entryY=0;entryDx=0;entryDy=0;entryPerimeter=0;labelBackgroundColor=default;strokeColor=default;fontFamily=Helvetica;fontSize=10;fontColor=default;endArrow=classic;exitX=0.211;exitY=1.004;exitDx=0;exitDy=0;exitPerimeter=0;" parent="1" source="D1LdL2bt-GOxow9vJPIf-25" target="D1LdL2bt-GOxow9vJPIf-30" edge="1">
          <mxGeometry relative="1" as="geometry" />
        </mxCell>
        <mxCell id="mwus9PYi0dFeoMU1GwIC-24" style="edgeStyle=none;shape=connector;rounded=0;orthogonalLoop=1;jettySize=auto;html=1;entryX=0.519;entryY=0;entryDx=0;entryDy=0;entryPerimeter=0;labelBackgroundColor=default;strokeColor=default;fontFamily=Helvetica;fontSize=10;fontColor=default;endArrow=classic;exitX=0.395;exitY=1.006;exitDx=0;exitDy=0;exitPerimeter=0;" parent="1" source="D1LdL2bt-GOxow9vJPIf-25" target="D1LdL2bt-GOxow9vJPIf-36" edge="1">
          <mxGeometry relative="1" as="geometry" />
        </mxCell>
        <mxCell id="mwus9PYi0dFeoMU1GwIC-51" style="edgeStyle=orthogonalEdgeStyle;shape=connector;rounded=0;orthogonalLoop=1;jettySize=auto;html=1;entryX=0.5;entryY=-0.003;entryDx=0;entryDy=0;entryPerimeter=0;labelBackgroundColor=default;strokeColor=default;fontFamily=Helvetica;fontSize=9;fontColor=default;endArrow=classic;" parent="1" source="D1LdL2bt-GOxow9vJPIf-9" target="mwus9PYi0dFeoMU1GwIC-39" edge="1">
          <mxGeometry relative="1" as="geometry">
            <Array as="points">
              <mxPoint x="470" y="600" />
              <mxPoint x="630" y="600" />
            </Array>
          </mxGeometry>
        </mxCell>
        <mxCell id="mwus9PYi0dFeoMU1GwIC-54" value="1st row" style="edgeLabel;html=1;align=center;verticalAlign=middle;resizable=0;points=[];fontSize=9;fontFamily=Helvetica;fontColor=default;" parent="mwus9PYi0dFeoMU1GwIC-51" vertex="1" connectable="0">
          <mxGeometry x="-0.1988" y="-1" relative="1" as="geometry">
            <mxPoint x="-52" y="-21" as="offset" />
          </mxGeometry>
        </mxCell>
        <mxCell id="mwus9PYi0dFeoMU1GwIC-52" value="2nd row" style="edgeStyle=orthogonalEdgeStyle;shape=connector;rounded=0;orthogonalLoop=1;jettySize=auto;html=1;entryX=0.5;entryY=-0.003;entryDx=0;entryDy=0;entryPerimeter=0;labelBackgroundColor=default;strokeColor=default;fontFamily=Helvetica;fontSize=9;fontColor=default;endArrow=classic;" parent="1" source="D1LdL2bt-GOxow9vJPIf-9" target="mwus9PYi0dFeoMU1GwIC-39" edge="1">
          <mxGeometry x="0.0543" y="4" relative="1" as="geometry">
            <Array as="points">
              <mxPoint x="590" y="580" />
              <mxPoint x="630" y="580" />
            </Array>
            <mxPoint x="4" y="4" as="offset" />
          </mxGeometry>
        </mxCell>
        <mxCell id="mwus9PYi0dFeoMU1GwIC-53" value="3rd row" style="edgeStyle=orthogonalEdgeStyle;shape=connector;rounded=0;orthogonalLoop=1;jettySize=auto;html=1;labelBackgroundColor=default;strokeColor=default;fontFamily=Helvetica;fontSize=9;fontColor=default;endArrow=classic;entryX=0.498;entryY=-0.004;entryDx=0;entryDy=0;entryPerimeter=0;" parent="1" source="D1LdL2bt-GOxow9vJPIf-9" target="mwus9PYi0dFeoMU1GwIC-39" edge="1">
          <mxGeometry x="-0.7551" relative="1" as="geometry">
            <mxPoint x="630" y="600" as="targetPoint" />
            <Array as="points">
              <mxPoint x="710" y="600" />
              <mxPoint x="630" y="600" />
              <mxPoint x="630" y="630" />
            </Array>
            <mxPoint as="offset" />
          </mxGeometry>
        </mxCell>
        <mxCell id="D1LdL2bt-GOxow9vJPIf-9" value="" style="shape=table;html=1;whiteSpace=wrap;startSize=0;container=1;collapsible=0;childLayout=tableLayout;" parent="1" vertex="1">
          <mxGeometry x="90" y="420" width="680" height="140" as="geometry" />
        </mxCell>
        <mxCell id="D1LdL2bt-GOxow9vJPIf-10" value="" style="shape=tableRow;horizontal=0;startSize=0;swimlaneHead=0;swimlaneBody=0;top=0;left=0;bottom=0;right=0;collapsible=0;dropTarget=0;fillColor=none;points=[[0,0.5],[1,0.5]];portConstraint=eastwest;" parent="D1LdL2bt-GOxow9vJPIf-9" vertex="1">
          <mxGeometry width="680" height="40" as="geometry" />
        </mxCell>
        <mxCell id="D1LdL2bt-GOxow9vJPIf-18" value="&lt;font style=&quot;font-size: 11px;&quot;&gt;1) select one at random&lt;/font&gt;" style="shape=partialRectangle;html=1;whiteSpace=wrap;connectable=0;fillColor=#808080;top=0;left=0;bottom=0;right=0;overflow=hidden;labelBorderColor=none;labelBackgroundColor=none;strokeColor=#36393d;gradientColor=none;opacity=10;" parent="D1LdL2bt-GOxow9vJPIf-10" vertex="1">
          <mxGeometry width="80" height="40" as="geometry">
            <mxRectangle width="80" height="40" as="alternateBounds" />
          </mxGeometry>
        </mxCell>
        <mxCell id="D1LdL2bt-GOxow9vJPIf-11" value="0.3&lt;span style=&quot;white-space: pre;&quot;&gt;	&lt;/span&gt;&lt;b&gt;0.2&lt;/b&gt;&lt;span style=&quot;white-space: pre;&quot;&gt;	&lt;/span&gt;0.4&lt;span style=&quot;white-space: pre;&quot;&gt;	&lt;/span&gt;0.1" style="shape=partialRectangle;html=1;whiteSpace=wrap;connectable=0;fillColor=none;top=0;left=0;bottom=0;right=0;overflow=hidden;" parent="D1LdL2bt-GOxow9vJPIf-10" vertex="1">
          <mxGeometry x="80" width="120" height="40" as="geometry">
            <mxRectangle width="120" height="40" as="alternateBounds" />
          </mxGeometry>
        </mxCell>
        <mxCell id="D1LdL2bt-GOxow9vJPIf-12" value="&lt;b&gt;0.6&lt;/b&gt;&lt;span style=&quot;white-space: pre;&quot;&gt;	&lt;/span&gt;0.1&lt;span style=&quot;white-space: pre;&quot;&gt;	&lt;/span&gt;0.3" style="shape=partialRectangle;html=1;whiteSpace=wrap;connectable=0;fillColor=none;top=0;left=0;bottom=0;right=0;overflow=hidden;" parent="D1LdL2bt-GOxow9vJPIf-10" vertex="1">
          <mxGeometry x="200" width="120" height="40" as="geometry">
            <mxRectangle width="120" height="40" as="alternateBounds" />
          </mxGeometry>
        </mxCell>
        <mxCell id="mwus9PYi0dFeoMU1GwIC-13" value="0.3&lt;span style=&quot;white-space: pre;&quot;&gt;	&lt;/span&gt;&lt;b&gt;0.2&lt;/b&gt;&lt;span style=&quot;white-space: pre;&quot;&gt;	&lt;/span&gt;0.5" style="shape=partialRectangle;html=1;whiteSpace=wrap;connectable=0;fillColor=none;top=0;left=0;bottom=0;right=0;overflow=hidden;" parent="D1LdL2bt-GOxow9vJPIf-10" vertex="1">
          <mxGeometry x="320" width="120" height="40" as="geometry">
            <mxRectangle width="120" height="40" as="alternateBounds" />
          </mxGeometry>
        </mxCell>
        <mxCell id="mwus9PYi0dFeoMU1GwIC-16" value="&lt;b&gt;0.2&lt;/b&gt;&lt;span style=&quot;white-space: pre;&quot;&gt;	&lt;/span&gt;0.6&lt;span style=&quot;white-space: pre;&quot;&gt;	&lt;/span&gt;0.2" style="shape=partialRectangle;html=1;whiteSpace=wrap;connectable=0;fillColor=none;top=0;left=0;bottom=0;right=0;overflow=hidden;" parent="D1LdL2bt-GOxow9vJPIf-10" vertex="1">
          <mxGeometry x="440" width="120" height="40" as="geometry">
            <mxRectangle width="120" height="40" as="alternateBounds" />
          </mxGeometry>
        </mxCell>
        <mxCell id="mwus9PYi0dFeoMU1GwIC-19" value="&lt;b&gt;0.7&lt;/b&gt;&lt;span style=&quot;white-space: pre;&quot;&gt;	&lt;/span&gt;0.2&lt;span style=&quot;white-space: pre;&quot;&gt;	&lt;/span&gt;0.1" style="shape=partialRectangle;html=1;whiteSpace=wrap;connectable=0;fillColor=none;top=0;left=0;bottom=0;right=0;overflow=hidden;" parent="D1LdL2bt-GOxow9vJPIf-10" vertex="1">
          <mxGeometry x="560" width="120" height="40" as="geometry">
            <mxRectangle width="120" height="40" as="alternateBounds" />
          </mxGeometry>
        </mxCell>
        <mxCell id="D1LdL2bt-GOxow9vJPIf-21" style="shape=tableRow;horizontal=0;startSize=0;swimlaneHead=0;swimlaneBody=0;top=0;left=0;bottom=0;right=0;collapsible=0;dropTarget=0;fillColor=none;points=[[0,0.5],[1,0.5]];portConstraint=eastwest;" parent="D1LdL2bt-GOxow9vJPIf-9" vertex="1">
          <mxGeometry y="40" width="680" height="50" as="geometry" />
        </mxCell>
        <mxCell id="D1LdL2bt-GOxow9vJPIf-22" value="&lt;font style=&quot;font-size: 11px;&quot;&gt;2) replace with random value from &amp;nbsp;⟨0, 1⟩&amp;nbsp;&lt;/font&gt;" style="shape=partialRectangle;html=1;whiteSpace=wrap;connectable=0;fillColor=#808080;top=0;left=0;bottom=0;right=0;overflow=hidden;fontColor=default;labelBorderColor=none;labelBackgroundColor=none;strokeColor=#36393d;gradientColor=none;opacity=10;" parent="D1LdL2bt-GOxow9vJPIf-21" vertex="1">
          <mxGeometry width="80" height="50" as="geometry">
            <mxRectangle width="80" height="50" as="alternateBounds" />
          </mxGeometry>
        </mxCell>
        <mxCell id="D1LdL2bt-GOxow9vJPIf-23" value="0.3&lt;span style=&quot;white-space: pre;&quot;&gt;	&lt;/span&gt;&lt;b style=&quot;border-color: var(--border-color);&quot;&gt;0.8&lt;span style=&quot;white-space: pre;&quot;&gt;	&lt;/span&gt;&lt;/b&gt;0.4&lt;span style=&quot;white-space: pre;&quot;&gt;	&lt;/span&gt;0.1" style="shape=partialRectangle;html=1;whiteSpace=wrap;connectable=0;fillColor=none;top=0;left=0;bottom=0;right=0;overflow=hidden;" parent="D1LdL2bt-GOxow9vJPIf-21" vertex="1">
          <mxGeometry x="80" width="120" height="50" as="geometry">
            <mxRectangle width="120" height="50" as="alternateBounds" />
          </mxGeometry>
        </mxCell>
        <mxCell id="D1LdL2bt-GOxow9vJPIf-24" value="&lt;b&gt;0.4&lt;/b&gt;&lt;span style=&quot;white-space: pre;&quot;&gt;	&lt;/span&gt;0.1&lt;span style=&quot;white-space: pre;&quot;&gt;	&lt;/span&gt;&lt;span style=&quot;border-color: var(--border-color);&quot;&gt;0.3&lt;/span&gt;" style="shape=partialRectangle;html=1;whiteSpace=wrap;connectable=0;fillColor=none;top=0;left=0;bottom=0;right=0;overflow=hidden;" parent="D1LdL2bt-GOxow9vJPIf-21" vertex="1">
          <mxGeometry x="200" width="120" height="50" as="geometry">
            <mxRectangle width="120" height="50" as="alternateBounds" />
          </mxGeometry>
        </mxCell>
        <mxCell id="mwus9PYi0dFeoMU1GwIC-14" value="0.3&lt;span style=&quot;white-space: pre;&quot;&gt;	&lt;/span&gt;&lt;b style=&quot;border-color: var(--border-color);&quot;&gt;0.2&lt;span style=&quot;white-space: pre;&quot;&gt;	&lt;/span&gt;&lt;/b&gt;0.5" style="shape=partialRectangle;html=1;whiteSpace=wrap;connectable=0;fillColor=none;top=0;left=0;bottom=0;right=0;overflow=hidden;" parent="D1LdL2bt-GOxow9vJPIf-21" vertex="1">
          <mxGeometry x="320" width="120" height="50" as="geometry">
            <mxRectangle width="120" height="50" as="alternateBounds" />
          </mxGeometry>
        </mxCell>
        <mxCell id="mwus9PYi0dFeoMU1GwIC-17" value="&lt;b style=&quot;border-color: var(--border-color);&quot;&gt;0.6&lt;span style=&quot;white-space: pre;&quot;&gt;	&lt;/span&gt;&lt;/b&gt;0.6&lt;span style=&quot;white-space: pre;&quot;&gt;	&lt;/span&gt;0.2" style="shape=partialRectangle;html=1;whiteSpace=wrap;connectable=0;fillColor=none;top=0;left=0;bottom=0;right=0;overflow=hidden;" parent="D1LdL2bt-GOxow9vJPIf-21" vertex="1">
          <mxGeometry x="440" width="120" height="50" as="geometry">
            <mxRectangle width="120" height="50" as="alternateBounds" />
          </mxGeometry>
        </mxCell>
        <mxCell id="mwus9PYi0dFeoMU1GwIC-20" value="&lt;span style=&quot;border-color: var(--border-color);&quot;&gt;&lt;b&gt;1&lt;span style=&quot;white-space: pre;&quot;&gt;	&lt;/span&gt;&lt;/b&gt;&lt;/span&gt;0.2&lt;span style=&quot;white-space: pre;&quot;&gt;	&lt;/span&gt;0.1" style="shape=partialRectangle;html=1;whiteSpace=wrap;connectable=0;fillColor=none;top=0;left=0;bottom=0;right=0;overflow=hidden;" parent="D1LdL2bt-GOxow9vJPIf-21" vertex="1">
          <mxGeometry x="560" width="120" height="50" as="geometry">
            <mxRectangle width="120" height="50" as="alternateBounds" />
          </mxGeometry>
        </mxCell>
        <mxCell id="D1LdL2bt-GOxow9vJPIf-25" style="shape=tableRow;horizontal=0;startSize=0;swimlaneHead=0;swimlaneBody=0;top=0;left=0;bottom=0;right=0;collapsible=0;dropTarget=0;fillColor=none;points=[[0,0.5],[1,0.5]];portConstraint=eastwest;" parent="D1LdL2bt-GOxow9vJPIf-9" vertex="1">
          <mxGeometry y="90" width="680" height="50" as="geometry" />
        </mxCell>
        <mxCell id="D1LdL2bt-GOxow9vJPIf-26" value="&lt;font style=&quot;font-size: 11px;&quot;&gt;3) normalize to stochastic vector&lt;/font&gt;" style="shape=partialRectangle;html=1;whiteSpace=wrap;connectable=0;fillColor=#808080;top=0;left=0;bottom=0;right=0;overflow=hidden;fontColor=default;labelBorderColor=none;labelBackgroundColor=none;strokeColor=#36393d;gradientColor=none;opacity=10;" parent="D1LdL2bt-GOxow9vJPIf-25" vertex="1">
          <mxGeometry width="80" height="50" as="geometry">
            <mxRectangle width="80" height="50" as="alternateBounds" />
          </mxGeometry>
        </mxCell>
        <mxCell id="D1LdL2bt-GOxow9vJPIf-27" value="0.19&amp;nbsp; &lt;b&gt;0.5&lt;/b&gt;&amp;nbsp; 0.25&amp;nbsp; 0.06" style="shape=partialRectangle;html=1;whiteSpace=wrap;connectable=0;fillColor=none;top=0;left=0;bottom=0;right=0;overflow=hidden;" parent="D1LdL2bt-GOxow9vJPIf-25" vertex="1">
          <mxGeometry x="80" width="120" height="50" as="geometry">
            <mxRectangle width="120" height="50" as="alternateBounds" />
          </mxGeometry>
        </mxCell>
        <mxCell id="D1LdL2bt-GOxow9vJPIf-28" value="&lt;b&gt;0.5&amp;nbsp;&amp;nbsp;&lt;/b&gt;0.125&amp;nbsp; 0.375" style="shape=partialRectangle;html=1;whiteSpace=wrap;connectable=0;fillColor=none;top=0;left=0;bottom=0;right=0;overflow=hidden;" parent="D1LdL2bt-GOxow9vJPIf-25" vertex="1">
          <mxGeometry x="200" width="120" height="50" as="geometry">
            <mxRectangle width="120" height="50" as="alternateBounds" />
          </mxGeometry>
        </mxCell>
        <mxCell id="mwus9PYi0dFeoMU1GwIC-15" value="0.3&lt;span style=&quot;white-space: pre;&quot;&gt;	&lt;/span&gt;&lt;b&gt;0.2&lt;/b&gt;&lt;span style=&quot;white-space: pre;&quot;&gt;	&lt;/span&gt;0.5" style="shape=partialRectangle;html=1;whiteSpace=wrap;connectable=0;fillColor=none;top=0;left=0;bottom=0;right=0;overflow=hidden;" parent="D1LdL2bt-GOxow9vJPIf-25" vertex="1">
          <mxGeometry x="320" width="120" height="50" as="geometry">
            <mxRectangle width="120" height="50" as="alternateBounds" />
          </mxGeometry>
        </mxCell>
        <mxCell id="mwus9PYi0dFeoMU1GwIC-18" value="&lt;b&gt;0.43&lt;/b&gt;&amp;nbsp; 0.43&amp;nbsp; 0.14" style="shape=partialRectangle;html=1;whiteSpace=wrap;connectable=0;fillColor=none;top=0;left=0;bottom=0;right=0;overflow=hidden;" parent="D1LdL2bt-GOxow9vJPIf-25" vertex="1">
          <mxGeometry x="440" width="120" height="50" as="geometry">
            <mxRectangle width="120" height="50" as="alternateBounds" />
          </mxGeometry>
        </mxCell>
        <mxCell id="mwus9PYi0dFeoMU1GwIC-21" value="&lt;b&gt;0.77&lt;/b&gt;&amp;nbsp; 0.15&amp;nbsp; 0.08" style="shape=partialRectangle;html=1;whiteSpace=wrap;connectable=0;fillColor=none;top=0;left=0;bottom=0;right=0;overflow=hidden;" parent="D1LdL2bt-GOxow9vJPIf-25" vertex="1">
          <mxGeometry x="560" width="120" height="50" as="geometry">
            <mxRectangle width="120" height="50" as="alternateBounds" />
          </mxGeometry>
        </mxCell>
        <mxCell id="D1LdL2bt-GOxow9vJPIf-29" value="" style="shape=table;html=1;whiteSpace=wrap;startSize=0;container=1;collapsible=0;childLayout=tableLayout;" parent="1" vertex="1">
          <mxGeometry x="60" y="660" width="240" height="40" as="geometry" />
        </mxCell>
        <mxCell id="D1LdL2bt-GOxow9vJPIf-30" value="" style="shape=tableRow;horizontal=0;startSize=0;swimlaneHead=0;swimlaneBody=0;top=0;left=0;bottom=0;right=0;collapsible=0;dropTarget=0;fillColor=none;points=[[0,0.5],[1,0.5]];portConstraint=eastwest;" parent="D1LdL2bt-GOxow9vJPIf-29" vertex="1">
          <mxGeometry width="240" height="40" as="geometry" />
        </mxCell>
        <mxCell id="D1LdL2bt-GOxow9vJPIf-31" value="0.19" style="shape=partialRectangle;html=1;whiteSpace=wrap;connectable=0;fillColor=none;top=0;left=0;bottom=0;right=0;overflow=hidden;" parent="D1LdL2bt-GOxow9vJPIf-30" vertex="1">
          <mxGeometry width="60" height="40" as="geometry">
            <mxRectangle width="60" height="40" as="alternateBounds" />
          </mxGeometry>
        </mxCell>
        <mxCell id="D1LdL2bt-GOxow9vJPIf-32" value="0.5" style="shape=partialRectangle;html=1;whiteSpace=wrap;connectable=0;fillColor=none;top=0;left=0;bottom=0;right=0;overflow=hidden;" parent="D1LdL2bt-GOxow9vJPIf-30" vertex="1">
          <mxGeometry x="60" width="60" height="40" as="geometry">
            <mxRectangle width="60" height="40" as="alternateBounds" />
          </mxGeometry>
        </mxCell>
        <mxCell id="D1LdL2bt-GOxow9vJPIf-33" value="0.25" style="shape=partialRectangle;html=1;whiteSpace=wrap;connectable=0;fillColor=none;top=0;left=0;bottom=0;right=0;overflow=hidden;" parent="D1LdL2bt-GOxow9vJPIf-30" vertex="1">
          <mxGeometry x="120" width="60" height="40" as="geometry">
            <mxRectangle width="60" height="40" as="alternateBounds" />
          </mxGeometry>
        </mxCell>
        <mxCell id="D1LdL2bt-GOxow9vJPIf-34" value="0.06" style="shape=partialRectangle;html=1;whiteSpace=wrap;connectable=0;fillColor=none;top=0;left=0;bottom=0;right=0;overflow=hidden;" parent="D1LdL2bt-GOxow9vJPIf-30" vertex="1">
          <mxGeometry x="180" width="60" height="40" as="geometry">
            <mxRectangle width="60" height="40" as="alternateBounds" />
          </mxGeometry>
        </mxCell>
        <mxCell id="D1LdL2bt-GOxow9vJPIf-35" value="" style="shape=table;html=1;whiteSpace=wrap;startSize=0;container=1;collapsible=0;childLayout=tableLayout;" parent="1" vertex="1">
          <mxGeometry x="320" y="660" width="180" height="40" as="geometry" />
        </mxCell>
        <mxCell id="D1LdL2bt-GOxow9vJPIf-36" value="" style="shape=tableRow;horizontal=0;startSize=0;swimlaneHead=0;swimlaneBody=0;top=0;left=0;bottom=0;right=0;collapsible=0;dropTarget=0;fillColor=none;points=[[0,0.5],[1,0.5]];portConstraint=eastwest;" parent="D1LdL2bt-GOxow9vJPIf-35" vertex="1">
          <mxGeometry width="180" height="40" as="geometry" />
        </mxCell>
        <mxCell id="D1LdL2bt-GOxow9vJPIf-37" value="0.5" style="shape=partialRectangle;html=1;whiteSpace=wrap;connectable=0;fillColor=none;top=0;left=0;bottom=0;right=0;overflow=hidden;" parent="D1LdL2bt-GOxow9vJPIf-36" vertex="1">
          <mxGeometry width="60" height="40" as="geometry">
            <mxRectangle width="60" height="40" as="alternateBounds" />
          </mxGeometry>
        </mxCell>
        <mxCell id="D1LdL2bt-GOxow9vJPIf-38" value="0.125" style="shape=partialRectangle;html=1;whiteSpace=wrap;connectable=0;fillColor=none;top=0;left=0;bottom=0;right=0;overflow=hidden;" parent="D1LdL2bt-GOxow9vJPIf-36" vertex="1">
          <mxGeometry x="60" width="60" height="40" as="geometry">
            <mxRectangle width="60" height="40" as="alternateBounds" />
          </mxGeometry>
        </mxCell>
        <mxCell id="D1LdL2bt-GOxow9vJPIf-39" value="0.375" style="shape=partialRectangle;html=1;whiteSpace=wrap;connectable=0;fillColor=none;top=0;left=0;bottom=0;right=0;overflow=hidden;" parent="D1LdL2bt-GOxow9vJPIf-36" vertex="1">
          <mxGeometry x="120" width="60" height="40" as="geometry">
            <mxRectangle width="60" height="40" as="alternateBounds" />
          </mxGeometry>
        </mxCell>
        <mxCell id="D1LdL2bt-GOxow9vJPIf-42" value="" style="shape=curlyBracket;whiteSpace=wrap;html=1;rounded=1;flipH=1;labelPosition=right;verticalLabelPosition=middle;align=left;verticalAlign=middle;direction=north;" parent="1" vertex="1">
          <mxGeometry x="60" y="710" width="240" height="20" as="geometry" />
        </mxCell>
        <mxCell id="D1LdL2bt-GOxow9vJPIf-43" value="&lt;font style=&quot;font-size: 15px;&quot;&gt;mutated painting&lt;br&gt;sequence random key&lt;br&gt;&lt;/font&gt;" style="text;html=1;align=center;verticalAlign=middle;resizable=0;points=[];autosize=1;strokeColor=none;fillColor=none;fontSize=17;fontFamily=Helvetica;fontColor=default;" parent="1" vertex="1">
          <mxGeometry x="90" y="730" width="170" height="50" as="geometry" />
        </mxCell>
        <mxCell id="D1LdL2bt-GOxow9vJPIf-45" value="" style="shape=curlyBracket;whiteSpace=wrap;html=1;rounded=1;flipH=1;labelPosition=right;verticalLabelPosition=middle;align=left;verticalAlign=middle;direction=north;" parent="1" vertex="1">
          <mxGeometry x="320" y="710" width="180" height="20" as="geometry" />
        </mxCell>
        <mxCell id="D1LdL2bt-GOxow9vJPIf-46" value="&lt;font style=&quot;font-size: 15px;&quot;&gt;mutated slicing&lt;br&gt;order random key&lt;br&gt;&lt;/font&gt;" style="text;html=1;align=center;verticalAlign=middle;resizable=0;points=[];autosize=1;strokeColor=none;fillColor=none;fontSize=17;fontFamily=Helvetica;fontColor=default;" parent="1" vertex="1">
          <mxGeometry x="340" y="730" width="140" height="50" as="geometry" />
        </mxCell>
        <mxCell id="D1LdL2bt-GOxow9vJPIf-70" value="" style="shape=curlyBracket;whiteSpace=wrap;html=1;rounded=1;flipH=1;labelPosition=right;verticalLabelPosition=middle;align=left;verticalAlign=middle;direction=north;" parent="1" vertex="1">
          <mxGeometry x="540" y="760" width="180" height="20" as="geometry" />
        </mxCell>
        <mxCell id="D1LdL2bt-GOxow9vJPIf-71" value="&lt;font style=&quot;font-size: 15px;&quot;&gt;mutated orientation&lt;br style=&quot;border-color: var(--border-color);&quot;&gt;probabilities&lt;br&gt;&lt;/font&gt;" style="text;html=1;align=center;verticalAlign=middle;resizable=0;points=[];autosize=1;strokeColor=none;fillColor=none;fontSize=17;fontFamily=Helvetica;fontColor=default;" parent="1" vertex="1">
          <mxGeometry x="555" y="780" width="150" height="50" as="geometry" />
        </mxCell>
        <mxCell id="mwus9PYi0dFeoMU1GwIC-38" value="" style="shape=table;html=1;whiteSpace=wrap;startSize=0;container=1;collapsible=0;childLayout=tableLayout;" parent="1" vertex="1">
          <mxGeometry x="540" y="630" width="180" height="120" as="geometry" />
        </mxCell>
        <mxCell id="mwus9PYi0dFeoMU1GwIC-39" value="" style="shape=tableRow;horizontal=0;startSize=0;swimlaneHead=0;swimlaneBody=0;top=0;left=0;bottom=0;right=0;collapsible=0;dropTarget=0;fillColor=none;points=[[0,0.5],[1,0.5]];portConstraint=eastwest;" parent="mwus9PYi0dFeoMU1GwIC-38" vertex="1">
          <mxGeometry width="180" height="40" as="geometry" />
        </mxCell>
        <mxCell id="mwus9PYi0dFeoMU1GwIC-40" value="0.3" style="shape=partialRectangle;html=1;whiteSpace=wrap;connectable=0;fillColor=none;top=0;left=0;bottom=0;right=0;overflow=hidden;" parent="mwus9PYi0dFeoMU1GwIC-39" vertex="1">
          <mxGeometry width="60" height="40" as="geometry">
            <mxRectangle width="60" height="40" as="alternateBounds" />
          </mxGeometry>
        </mxCell>
        <mxCell id="mwus9PYi0dFeoMU1GwIC-41" value="0.2" style="shape=partialRectangle;html=1;whiteSpace=wrap;connectable=0;fillColor=none;top=0;left=0;bottom=0;right=0;overflow=hidden;" parent="mwus9PYi0dFeoMU1GwIC-39" vertex="1">
          <mxGeometry x="60" width="60" height="40" as="geometry">
            <mxRectangle width="60" height="40" as="alternateBounds" />
          </mxGeometry>
        </mxCell>
        <mxCell id="mwus9PYi0dFeoMU1GwIC-42" value="0.5" style="shape=partialRectangle;html=1;whiteSpace=wrap;connectable=0;fillColor=none;top=0;left=0;bottom=0;right=0;overflow=hidden;" parent="mwus9PYi0dFeoMU1GwIC-39" vertex="1">
          <mxGeometry x="120" width="60" height="40" as="geometry">
            <mxRectangle width="60" height="40" as="alternateBounds" />
          </mxGeometry>
        </mxCell>
        <mxCell id="mwus9PYi0dFeoMU1GwIC-43" style="shape=tableRow;horizontal=0;startSize=0;swimlaneHead=0;swimlaneBody=0;top=0;left=0;bottom=0;right=0;collapsible=0;dropTarget=0;fillColor=none;points=[[0,0.5],[1,0.5]];portConstraint=eastwest;" parent="mwus9PYi0dFeoMU1GwIC-38" vertex="1">
          <mxGeometry y="40" width="180" height="40" as="geometry" />
        </mxCell>
        <mxCell id="mwus9PYi0dFeoMU1GwIC-44" value="0.43" style="shape=partialRectangle;html=1;whiteSpace=wrap;connectable=0;fillColor=none;top=0;left=0;bottom=0;right=0;overflow=hidden;" parent="mwus9PYi0dFeoMU1GwIC-43" vertex="1">
          <mxGeometry width="60" height="40" as="geometry">
            <mxRectangle width="60" height="40" as="alternateBounds" />
          </mxGeometry>
        </mxCell>
        <mxCell id="mwus9PYi0dFeoMU1GwIC-45" value="0.43" style="shape=partialRectangle;html=1;whiteSpace=wrap;connectable=0;fillColor=none;top=0;left=0;bottom=0;right=0;overflow=hidden;" parent="mwus9PYi0dFeoMU1GwIC-43" vertex="1">
          <mxGeometry x="60" width="60" height="40" as="geometry">
            <mxRectangle width="60" height="40" as="alternateBounds" />
          </mxGeometry>
        </mxCell>
        <mxCell id="mwus9PYi0dFeoMU1GwIC-46" value="0.14" style="shape=partialRectangle;html=1;whiteSpace=wrap;connectable=0;fillColor=none;top=0;left=0;bottom=0;right=0;overflow=hidden;" parent="mwus9PYi0dFeoMU1GwIC-43" vertex="1">
          <mxGeometry x="120" width="60" height="40" as="geometry">
            <mxRectangle width="60" height="40" as="alternateBounds" />
          </mxGeometry>
        </mxCell>
        <mxCell id="mwus9PYi0dFeoMU1GwIC-47" style="shape=tableRow;horizontal=0;startSize=0;swimlaneHead=0;swimlaneBody=0;top=0;left=0;bottom=0;right=0;collapsible=0;dropTarget=0;fillColor=none;points=[[0,0.5],[1,0.5]];portConstraint=eastwest;" parent="mwus9PYi0dFeoMU1GwIC-38" vertex="1">
          <mxGeometry y="80" width="180" height="40" as="geometry" />
        </mxCell>
        <mxCell id="mwus9PYi0dFeoMU1GwIC-48" value="0.77" style="shape=partialRectangle;html=1;whiteSpace=wrap;connectable=0;fillColor=none;top=0;left=0;bottom=0;right=0;overflow=hidden;" parent="mwus9PYi0dFeoMU1GwIC-47" vertex="1">
          <mxGeometry width="60" height="40" as="geometry">
            <mxRectangle width="60" height="40" as="alternateBounds" />
          </mxGeometry>
        </mxCell>
        <mxCell id="mwus9PYi0dFeoMU1GwIC-49" value="0.15" style="shape=partialRectangle;html=1;whiteSpace=wrap;connectable=0;fillColor=none;top=0;left=0;bottom=0;right=0;overflow=hidden;" parent="mwus9PYi0dFeoMU1GwIC-47" vertex="1">
          <mxGeometry x="60" width="60" height="40" as="geometry">
            <mxRectangle width="60" height="40" as="alternateBounds" />
          </mxGeometry>
        </mxCell>
        <mxCell id="mwus9PYi0dFeoMU1GwIC-50" value="0.08" style="shape=partialRectangle;html=1;whiteSpace=wrap;connectable=0;fillColor=none;top=0;left=0;bottom=0;right=0;overflow=hidden;" parent="mwus9PYi0dFeoMU1GwIC-47" vertex="1">
          <mxGeometry x="120" width="60" height="40" as="geometry">
            <mxRectangle width="60" height="40" as="alternateBounds" />
          </mxGeometry>
        </mxCell>
      </root>
    </mxGraphModel>
  </diagram>
</mxfile>
